%TF.GenerationSoftware,KiCad,Pcbnew,7.0.5*%
%TF.CreationDate,2023-06-30T21:32:19-07:00*%
%TF.ProjectId,ECE 299 - Radio Clock,45434520-3239-4392-902d-20526164696f,rev?*%
%TF.SameCoordinates,Original*%
%TF.FileFunction,Soldermask,Top*%
%TF.FilePolarity,Negative*%
%FSLAX46Y46*%
G04 Gerber Fmt 4.6, Leading zero omitted, Abs format (unit mm)*
G04 Created by KiCad (PCBNEW 7.0.5) date 2023-06-30 21:32:19*
%MOMM*%
%LPD*%
G01*
G04 APERTURE LIST*
%ADD10R,2.600000X2.600000*%
%ADD11C,2.600000*%
%ADD12R,1.600000X1.600000*%
%ADD13C,1.600000*%
%ADD14O,1.600000X1.600000*%
%ADD15R,1.700000X1.700000*%
%ADD16C,1.700000*%
%ADD17R,1.000000X1.000000*%
%ADD18C,2.000000*%
G04 APERTURE END LIST*
D10*
%TO.C,Speaker1*%
X186182000Y-72644000D03*
D11*
X181182000Y-72644000D03*
%TD*%
D12*
%TO.C,C1*%
X168060380Y-81280000D03*
D13*
X165560380Y-81280000D03*
%TD*%
%TO.C,R3*%
X169522780Y-76657200D03*
D14*
X169522780Y-66497200D03*
%TD*%
D13*
%TO.C,R2*%
X165509580Y-66446400D03*
D14*
X165509580Y-76606400D03*
%TD*%
D15*
%TO.C,U2*%
X173228000Y-98298000D03*
D16*
X175768000Y-98298000D03*
X178308000Y-98298000D03*
X180848000Y-98298000D03*
X183388000Y-98298000D03*
X183388000Y-83058000D03*
X180848000Y-83058000D03*
X178308000Y-83058000D03*
X175768000Y-83058000D03*
X173228000Y-83058000D03*
%TD*%
D12*
%TO.C,C3*%
X185677887Y-58728687D03*
D13*
X185677887Y-61228687D03*
%TD*%
D15*
%TO.C,DISP1*%
X131318000Y-75387200D03*
D16*
X131318000Y-77927200D03*
X131318000Y-80467200D03*
X131318000Y-83007200D03*
X131318000Y-85547200D03*
X131318000Y-88087200D03*
X131318000Y-90627200D03*
%TD*%
D12*
%TO.C,C2*%
X165100000Y-50292000D03*
D13*
X165100000Y-52792000D03*
%TD*%
D16*
%TO.C,U1*%
X156210000Y-50165000D03*
X156210000Y-52705000D03*
X156210000Y-55245000D03*
X156210000Y-57785000D03*
X156210000Y-60325000D03*
X156210000Y-62865000D03*
X156210000Y-65405000D03*
X156210000Y-67945000D03*
X156210000Y-70485000D03*
X156210000Y-73025000D03*
X156210000Y-75565000D03*
X156210000Y-78105000D03*
X156210000Y-80645000D03*
X156210000Y-83185000D03*
X156210000Y-85725000D03*
X156210000Y-88265000D03*
X156210000Y-90805000D03*
X156210000Y-93345000D03*
X156210000Y-95885000D03*
X156210000Y-98425000D03*
X138430000Y-98425000D03*
X138430000Y-95885000D03*
X138430000Y-93345000D03*
X138430000Y-90805000D03*
X138430000Y-88265000D03*
X138430000Y-85725000D03*
X138430000Y-83185000D03*
X138430000Y-80645000D03*
X138430000Y-78105000D03*
X138430000Y-75565000D03*
X138430000Y-73025000D03*
X138430000Y-70485000D03*
X138430000Y-67945000D03*
X138430000Y-65405000D03*
X138430000Y-62865000D03*
X138430000Y-60325000D03*
X138430000Y-57785000D03*
X138430000Y-55245000D03*
X138430000Y-52705000D03*
D15*
X138430000Y-50165000D03*
%TD*%
D13*
%TO.C,R1*%
X174244000Y-76708000D03*
D14*
X174244000Y-66548000D03*
%TD*%
D13*
%TO.C,C4*%
X178054000Y-58674000D03*
D14*
X178054000Y-66174000D03*
%TD*%
D12*
%TO.C,U3*%
X164391980Y-63909580D03*
D14*
X166931980Y-63909580D03*
X169471980Y-63909580D03*
X172011980Y-63909580D03*
X172011980Y-56289580D03*
X169471980Y-56289580D03*
X166931980Y-56289580D03*
X164391980Y-56289580D03*
%TD*%
D17*
%TO.C,Antenna1*%
X166371000Y-91440000D03*
%TD*%
D18*
%TO.C,SW1*%
X150518000Y-90170000D03*
X144018000Y-90170000D03*
X150518000Y-94670000D03*
X144018000Y-94670000D03*
%TD*%
%TO.C,SW5*%
X144018000Y-56642000D03*
X150518000Y-56642000D03*
X144018000Y-52142000D03*
X150518000Y-52142000D03*
%TD*%
%TO.C,SW4*%
X144018000Y-66548000D03*
X150518000Y-66548000D03*
X144018000Y-62048000D03*
X150518000Y-62048000D03*
%TD*%
%TO.C,SW2*%
X144018000Y-85272000D03*
X150518000Y-85272000D03*
X144018000Y-80772000D03*
X150518000Y-80772000D03*
%TD*%
%TO.C,SW3*%
X144018000Y-75874000D03*
X150518000Y-75874000D03*
X144018000Y-71374000D03*
X150518000Y-71374000D03*
%TD*%
M02*
