M48
; DRILL file {KiCad 7.0.5} date Fri Jun 30 21:32:39 2023
; FORMAT={-:-/ absolute / inch / decimal}
; #@! TF.CreationDate,2023-06-30T21:32:39-07:00
; #@! TF.GenerationSoftware,Kicad,Pcbnew,7.0.5
; #@! TF.FileFunction,Plated,1,2,PTH
FMAT,2
INCH
; #@! TA.AperFunction,Plated,PTH,ViaDrill
T1C0.0150
; #@! TA.AperFunction,Plated,PTH,ViaDrill
T2C0.0157
; #@! TA.AperFunction,Plated,PTH,ViaDrill
T3C0.0250
; #@! TA.AperFunction,Plated,PTH,ComponentDrill
T4C0.0276
; #@! TA.AperFunction,Plated,PTH,ComponentDrill
T5C0.0315
; #@! TA.AperFunction,Plated,PTH,ComponentDrill
T6C0.0394
; #@! TA.AperFunction,Plated,PTH,ComponentDrill
T7C0.0433
; #@! TA.AperFunction,Plated,PTH,ComponentDrill
T8C0.0512
%
G90
G05
T1
X6.3Y-3.025
X6.3Y-3.7
T2
X5.258Y-3.74
X6.05Y-2.475
X7.077Y-4.0109
T3
X6.039Y-3.854
T4
X6.55Y-3.6
T5
X6.4721Y-2.2161
X6.4721Y-2.5161
X6.5Y-1.98
X6.5Y-2.0784
X6.5161Y-2.616
X6.5161Y-3.016
X6.5181Y-3.2
X6.5721Y-2.2161
X6.5721Y-2.5161
X6.6166Y-3.2
X6.6721Y-2.2161
X6.6721Y-2.5161
X6.6741Y-2.618
X6.6741Y-3.018
X6.7721Y-2.2161
X6.7721Y-2.5161
X6.86Y-2.62
X6.86Y-3.02
X7.01Y-2.31
X7.01Y-2.6053
X7.3102Y-2.3122
X7.3102Y-2.4106
T6
X5.17Y-2.968
X5.17Y-3.068
X5.17Y-3.168
X5.17Y-3.268
X5.17Y-3.368
X5.17Y-3.468
X5.17Y-3.568
X5.45Y-1.975
X5.45Y-2.075
X5.45Y-2.175
X5.45Y-2.275
X5.45Y-2.375
X5.45Y-2.475
X5.45Y-2.575
X5.45Y-2.675
X5.45Y-2.775
X5.45Y-2.875
X5.45Y-2.975
X5.45Y-3.075
X5.45Y-3.175
X5.45Y-3.275
X5.45Y-3.375
X5.45Y-3.475
X5.45Y-3.575
X5.45Y-3.675
X5.45Y-3.775
X5.45Y-3.875
X6.15Y-1.975
X6.15Y-2.075
X6.15Y-2.175
X6.15Y-2.275
X6.15Y-2.375
X6.15Y-2.475
X6.15Y-2.575
X6.15Y-2.675
X6.15Y-2.775
X6.15Y-2.875
X6.15Y-2.975
X6.15Y-3.075
X6.15Y-3.175
X6.15Y-3.275
X6.15Y-3.375
X6.15Y-3.475
X6.15Y-3.575
X6.15Y-3.675
X6.15Y-3.775
X6.15Y-3.875
X6.82Y-3.27
X6.82Y-3.87
X6.92Y-3.27
X6.92Y-3.87
X7.02Y-3.27
X7.02Y-3.87
X7.12Y-3.27
X7.12Y-3.87
X7.22Y-3.27
X7.22Y-3.87
T7
X5.67Y-2.0528
X5.67Y-2.23
X5.67Y-2.4428
X5.67Y-2.62
X5.67Y-2.81
X5.67Y-2.9872
X5.67Y-3.18
X5.67Y-3.3572
X5.67Y-3.55
X5.67Y-3.7272
X5.9259Y-2.0528
X5.9259Y-2.23
X5.9259Y-2.4428
X5.9259Y-2.62
X5.9259Y-2.81
X5.9259Y-2.9872
X5.9259Y-3.18
X5.9259Y-3.3572
X5.9259Y-3.55
X5.9259Y-3.7272
T8
X7.1331Y-2.86
X7.33Y-2.86
T0
M30
