%TF.GenerationSoftware,KiCad,Pcbnew,7.0.5*%
%TF.CreationDate,2023-06-14T12:52:39-07:00*%
%TF.ProjectId,ECE299-RadioClock,45434532-3939-42d5-9261-64696f436c6f,0*%
%TF.SameCoordinates,Original*%
%TF.FileFunction,Copper,L2,Bot*%
%TF.FilePolarity,Positive*%
%FSLAX46Y46*%
G04 Gerber Fmt 4.6, Leading zero omitted, Abs format (unit mm)*
G04 Created by KiCad (PCBNEW 7.0.5) date 2023-06-14 12:52:39*
%MOMM*%
%LPD*%
G01*
G04 APERTURE LIST*
%TA.AperFunction,ComponentPad*%
%ADD10O,1.600000X1.600000*%
%TD*%
%TA.AperFunction,ComponentPad*%
%ADD11C,1.600000*%
%TD*%
%TA.AperFunction,ComponentPad*%
%ADD12C,1.800000*%
%TD*%
%TA.AperFunction,ComponentPad*%
%ADD13R,1.800000X1.800000*%
%TD*%
%TA.AperFunction,SMDPad,CuDef*%
%ADD14R,2.540000X3.510000*%
%TD*%
%TA.AperFunction,ViaPad*%
%ADD15C,0.800000*%
%TD*%
%TA.AperFunction,Conductor*%
%ADD16C,0.250000*%
%TD*%
G04 APERTURE END LIST*
D10*
%TO.P,R1,2*%
%TO.N,/led*%
X156300000Y-118000000D03*
D11*
%TO.P,R1,1*%
%TO.N,VCC*%
X169000000Y-118000000D03*
%TD*%
D12*
%TO.P,D1,2,A*%
%TO.N,/led*%
X137000000Y-118000000D03*
D13*
%TO.P,D1,1,K*%
%TO.N,GND*%
X137000000Y-115460000D03*
%TD*%
D14*
%TO.P,BT1,1,+*%
%TO.N,VCC*%
X165680000Y-90000000D03*
%TO.P,BT1,2,-*%
%TO.N,GND*%
X136320000Y-90000000D03*
%TD*%
D15*
%TO.N,VCC*%
X166000000Y-105000000D03*
%TD*%
D16*
%TO.N,VCC*%
X165680000Y-104680000D02*
X166000000Y-105000000D01*
X165680000Y-90000000D02*
X165680000Y-104680000D01*
%TO.N,GND*%
X136320000Y-114780000D02*
X137000000Y-115460000D01*
X136320000Y-90000000D02*
X136320000Y-114780000D01*
%TD*%
%TA.AperFunction,Conductor*%
%TO.N,GND*%
G36*
X175942539Y-77020185D02*
G01*
X175988294Y-77072989D01*
X175999500Y-77124500D01*
X175999500Y-122875500D01*
X175979815Y-122942539D01*
X175927011Y-122988294D01*
X175875500Y-122999500D01*
X128124500Y-122999500D01*
X128057461Y-122979815D01*
X128011706Y-122927011D01*
X128000500Y-122875500D01*
X128000500Y-118000006D01*
X135594700Y-118000006D01*
X135613864Y-118231297D01*
X135613866Y-118231308D01*
X135670842Y-118456300D01*
X135764075Y-118668848D01*
X135891016Y-118863147D01*
X135891019Y-118863151D01*
X135891021Y-118863153D01*
X136048216Y-119033913D01*
X136048219Y-119033915D01*
X136048222Y-119033918D01*
X136231365Y-119176464D01*
X136231371Y-119176468D01*
X136231374Y-119176470D01*
X136435497Y-119286936D01*
X136489479Y-119305468D01*
X136655015Y-119362297D01*
X136655017Y-119362297D01*
X136655019Y-119362298D01*
X136883951Y-119400500D01*
X136883952Y-119400500D01*
X137116048Y-119400500D01*
X137116049Y-119400500D01*
X137344981Y-119362298D01*
X137564503Y-119286936D01*
X137768626Y-119176470D01*
X137951784Y-119033913D01*
X138108979Y-118863153D01*
X138235924Y-118668849D01*
X138329157Y-118456300D01*
X138386134Y-118231305D01*
X138386516Y-118226697D01*
X138405300Y-118000006D01*
X138405300Y-118000001D01*
X154994532Y-118000001D01*
X155014364Y-118226686D01*
X155014366Y-118226697D01*
X155073258Y-118446488D01*
X155073261Y-118446497D01*
X155169431Y-118652732D01*
X155169432Y-118652734D01*
X155299954Y-118839141D01*
X155460858Y-119000045D01*
X155460861Y-119000047D01*
X155647266Y-119130568D01*
X155853504Y-119226739D01*
X156073308Y-119285635D01*
X156235230Y-119299801D01*
X156299998Y-119305468D01*
X156300000Y-119305468D01*
X156300002Y-119305468D01*
X156356673Y-119300509D01*
X156526692Y-119285635D01*
X156746496Y-119226739D01*
X156952734Y-119130568D01*
X157139139Y-119000047D01*
X157300047Y-118839139D01*
X157430568Y-118652734D01*
X157526739Y-118446496D01*
X157585635Y-118226692D01*
X157602634Y-118032384D01*
X157605468Y-118000001D01*
X167694532Y-118000001D01*
X167714364Y-118226686D01*
X167714366Y-118226697D01*
X167773258Y-118446488D01*
X167773261Y-118446497D01*
X167869431Y-118652732D01*
X167869432Y-118652734D01*
X167999954Y-118839141D01*
X168160858Y-119000045D01*
X168160861Y-119000047D01*
X168347266Y-119130568D01*
X168553504Y-119226739D01*
X168773308Y-119285635D01*
X168935230Y-119299801D01*
X168999998Y-119305468D01*
X169000000Y-119305468D01*
X169000002Y-119305468D01*
X169056672Y-119300509D01*
X169226692Y-119285635D01*
X169446496Y-119226739D01*
X169652734Y-119130568D01*
X169839139Y-119000047D01*
X170000047Y-118839139D01*
X170130568Y-118652734D01*
X170226739Y-118446496D01*
X170285635Y-118226692D01*
X170302634Y-118032384D01*
X170305468Y-118000001D01*
X170305468Y-117999998D01*
X170285635Y-117773313D01*
X170285635Y-117773308D01*
X170226739Y-117553504D01*
X170130568Y-117347266D01*
X170000047Y-117160861D01*
X170000045Y-117160858D01*
X169839141Y-116999954D01*
X169652734Y-116869432D01*
X169652732Y-116869431D01*
X169446497Y-116773261D01*
X169446488Y-116773258D01*
X169226697Y-116714366D01*
X169226693Y-116714365D01*
X169226692Y-116714365D01*
X169226691Y-116714364D01*
X169226686Y-116714364D01*
X169000002Y-116694532D01*
X168999998Y-116694532D01*
X168773313Y-116714364D01*
X168773302Y-116714366D01*
X168553511Y-116773258D01*
X168553502Y-116773261D01*
X168347267Y-116869431D01*
X168347265Y-116869432D01*
X168160858Y-116999954D01*
X167999954Y-117160858D01*
X167869432Y-117347265D01*
X167869431Y-117347267D01*
X167773261Y-117553502D01*
X167773258Y-117553511D01*
X167714366Y-117773302D01*
X167714364Y-117773313D01*
X167694532Y-117999998D01*
X167694532Y-118000001D01*
X157605468Y-118000001D01*
X157605468Y-117999998D01*
X157585635Y-117773313D01*
X157585635Y-117773308D01*
X157526739Y-117553504D01*
X157430568Y-117347266D01*
X157300047Y-117160861D01*
X157300045Y-117160858D01*
X157139141Y-116999954D01*
X156952734Y-116869432D01*
X156952732Y-116869431D01*
X156746497Y-116773261D01*
X156746488Y-116773258D01*
X156526697Y-116714366D01*
X156526693Y-116714365D01*
X156526692Y-116714365D01*
X156526691Y-116714364D01*
X156526686Y-116714364D01*
X156300002Y-116694532D01*
X156299998Y-116694532D01*
X156073313Y-116714364D01*
X156073302Y-116714366D01*
X155853511Y-116773258D01*
X155853502Y-116773261D01*
X155647267Y-116869431D01*
X155647265Y-116869432D01*
X155460858Y-116999954D01*
X155299954Y-117160858D01*
X155169432Y-117347265D01*
X155169431Y-117347267D01*
X155073261Y-117553502D01*
X155073258Y-117553511D01*
X155014366Y-117773302D01*
X155014364Y-117773313D01*
X154994532Y-117999998D01*
X154994532Y-118000001D01*
X138405300Y-118000001D01*
X138405300Y-117999993D01*
X138386135Y-117768702D01*
X138386133Y-117768691D01*
X138329157Y-117543699D01*
X138235924Y-117331151D01*
X138108981Y-117136849D01*
X138013832Y-117033489D01*
X137982910Y-116970835D01*
X137990770Y-116901409D01*
X138034918Y-116847253D01*
X138061730Y-116833325D01*
X138142084Y-116803355D01*
X138142093Y-116803350D01*
X138257187Y-116717190D01*
X138257190Y-116717187D01*
X138343350Y-116602093D01*
X138343354Y-116602086D01*
X138393596Y-116467379D01*
X138393598Y-116467372D01*
X138399999Y-116407844D01*
X138400000Y-116407827D01*
X138400000Y-115710000D01*
X137375278Y-115710000D01*
X137423625Y-115626260D01*
X137453810Y-115494008D01*
X137443673Y-115358735D01*
X137394113Y-115232459D01*
X137376203Y-115210000D01*
X138400000Y-115210000D01*
X138400000Y-114512172D01*
X138399999Y-114512155D01*
X138393598Y-114452627D01*
X138393596Y-114452620D01*
X138343354Y-114317913D01*
X138343350Y-114317906D01*
X138257190Y-114202812D01*
X138257187Y-114202809D01*
X138142093Y-114116649D01*
X138142086Y-114116645D01*
X138007379Y-114066403D01*
X138007372Y-114066401D01*
X137947844Y-114060000D01*
X137250000Y-114060000D01*
X137250000Y-115085810D01*
X137197453Y-115049984D01*
X137067827Y-115010000D01*
X136966276Y-115010000D01*
X136865862Y-115025135D01*
X136750000Y-115080931D01*
X136750000Y-114060000D01*
X136052155Y-114060000D01*
X135992627Y-114066401D01*
X135992620Y-114066403D01*
X135857913Y-114116645D01*
X135857906Y-114116649D01*
X135742812Y-114202809D01*
X135742809Y-114202812D01*
X135656649Y-114317906D01*
X135656645Y-114317913D01*
X135606403Y-114452620D01*
X135606401Y-114452627D01*
X135600000Y-114512155D01*
X135600000Y-115210000D01*
X136624722Y-115210000D01*
X136576375Y-115293740D01*
X136546190Y-115425992D01*
X136556327Y-115561265D01*
X136605887Y-115687541D01*
X136623797Y-115710000D01*
X135600000Y-115710000D01*
X135600000Y-116407844D01*
X135606401Y-116467372D01*
X135606403Y-116467379D01*
X135656645Y-116602086D01*
X135656649Y-116602093D01*
X135742809Y-116717187D01*
X135742812Y-116717190D01*
X135857906Y-116803350D01*
X135857913Y-116803354D01*
X135938270Y-116833325D01*
X135994204Y-116875196D01*
X136018621Y-116940660D01*
X136003770Y-117008933D01*
X135986168Y-117033489D01*
X135891021Y-117136847D01*
X135891019Y-117136848D01*
X135891016Y-117136853D01*
X135764075Y-117331151D01*
X135670842Y-117543699D01*
X135613866Y-117768691D01*
X135613864Y-117768702D01*
X135594700Y-117999993D01*
X135594700Y-118000006D01*
X128000500Y-118000006D01*
X128000500Y-90250000D01*
X134550000Y-90250000D01*
X134550000Y-91802844D01*
X134556401Y-91862372D01*
X134556403Y-91862379D01*
X134606645Y-91997086D01*
X134606649Y-91997093D01*
X134692809Y-92112187D01*
X134692812Y-92112190D01*
X134807906Y-92198350D01*
X134807913Y-92198354D01*
X134942620Y-92248596D01*
X134942627Y-92248598D01*
X135002155Y-92254999D01*
X135002172Y-92255000D01*
X136070000Y-92255000D01*
X136070000Y-90250000D01*
X136570000Y-90250000D01*
X136570000Y-92255000D01*
X137637828Y-92255000D01*
X137637844Y-92254999D01*
X137697372Y-92248598D01*
X137697379Y-92248596D01*
X137832086Y-92198354D01*
X137832093Y-92198350D01*
X137947187Y-92112190D01*
X137947190Y-92112187D01*
X138033350Y-91997093D01*
X138033354Y-91997086D01*
X138083596Y-91862379D01*
X138083598Y-91862372D01*
X138089996Y-91802870D01*
X163909500Y-91802870D01*
X163909501Y-91802876D01*
X163915908Y-91862483D01*
X163966202Y-91997328D01*
X163966206Y-91997335D01*
X164052452Y-92112544D01*
X164052455Y-92112547D01*
X164167664Y-92198793D01*
X164167671Y-92198797D01*
X164212618Y-92215560D01*
X164302517Y-92249091D01*
X164362127Y-92255500D01*
X164930500Y-92255499D01*
X164997539Y-92275183D01*
X165043294Y-92327987D01*
X165054500Y-92379499D01*
X165054500Y-104597255D01*
X165052775Y-104612872D01*
X165053061Y-104612899D01*
X165052326Y-104620666D01*
X165054469Y-104688846D01*
X165054500Y-104690793D01*
X165054500Y-104719343D01*
X165054501Y-104719360D01*
X165055368Y-104726231D01*
X165055826Y-104732050D01*
X165057290Y-104778624D01*
X165057291Y-104778627D01*
X165062880Y-104797867D01*
X165066824Y-104816911D01*
X165069336Y-104836791D01*
X165086490Y-104880119D01*
X165088382Y-104885646D01*
X165094942Y-104908224D01*
X165099187Y-104955781D01*
X165094540Y-105000000D01*
X165114326Y-105188256D01*
X165114327Y-105188259D01*
X165172818Y-105368277D01*
X165172821Y-105368284D01*
X165267467Y-105532216D01*
X165394129Y-105672888D01*
X165547265Y-105784148D01*
X165547270Y-105784151D01*
X165720192Y-105861142D01*
X165720197Y-105861144D01*
X165905354Y-105900500D01*
X165905355Y-105900500D01*
X166094644Y-105900500D01*
X166094646Y-105900500D01*
X166279803Y-105861144D01*
X166452730Y-105784151D01*
X166605871Y-105672888D01*
X166732533Y-105532216D01*
X166827179Y-105368284D01*
X166885674Y-105188256D01*
X166905460Y-105000000D01*
X166885674Y-104811744D01*
X166827179Y-104631716D01*
X166732533Y-104467784D01*
X166605871Y-104327112D01*
X166605870Y-104327111D01*
X166452734Y-104215851D01*
X166452729Y-104215848D01*
X166379064Y-104183050D01*
X166325827Y-104137800D01*
X166305506Y-104070950D01*
X166305500Y-104069771D01*
X166305500Y-92379499D01*
X166325185Y-92312460D01*
X166377989Y-92266705D01*
X166429500Y-92255499D01*
X166997871Y-92255499D01*
X166997872Y-92255499D01*
X167057483Y-92249091D01*
X167192331Y-92198796D01*
X167307546Y-92112546D01*
X167393796Y-91997331D01*
X167444091Y-91862483D01*
X167450500Y-91802873D01*
X167450499Y-88197128D01*
X167444091Y-88137517D01*
X167393884Y-88002906D01*
X167393797Y-88002671D01*
X167393793Y-88002664D01*
X167307547Y-87887455D01*
X167307544Y-87887452D01*
X167192335Y-87801206D01*
X167192328Y-87801202D01*
X167057482Y-87750908D01*
X167057483Y-87750908D01*
X166997883Y-87744501D01*
X166997881Y-87744500D01*
X166997873Y-87744500D01*
X166997864Y-87744500D01*
X164362129Y-87744500D01*
X164362123Y-87744501D01*
X164302516Y-87750908D01*
X164167671Y-87801202D01*
X164167664Y-87801206D01*
X164052455Y-87887452D01*
X164052452Y-87887455D01*
X163966206Y-88002664D01*
X163966202Y-88002671D01*
X163915908Y-88137517D01*
X163909501Y-88197116D01*
X163909501Y-88197123D01*
X163909500Y-88197135D01*
X163909500Y-91802870D01*
X138089996Y-91802870D01*
X138089999Y-91802844D01*
X138090000Y-91802827D01*
X138090000Y-90250000D01*
X136570000Y-90250000D01*
X136070000Y-90250000D01*
X134550000Y-90250000D01*
X128000500Y-90250000D01*
X128000500Y-89750000D01*
X134550000Y-89750000D01*
X136070000Y-89750000D01*
X136070000Y-87745000D01*
X136570000Y-87745000D01*
X136570000Y-89750000D01*
X138090000Y-89750000D01*
X138090000Y-88197172D01*
X138089999Y-88197155D01*
X138083598Y-88137627D01*
X138083596Y-88137620D01*
X138033354Y-88002913D01*
X138033350Y-88002906D01*
X137947190Y-87887812D01*
X137947187Y-87887809D01*
X137832093Y-87801649D01*
X137832086Y-87801645D01*
X137697379Y-87751403D01*
X137697372Y-87751401D01*
X137637844Y-87745000D01*
X136570000Y-87745000D01*
X136070000Y-87745000D01*
X135002155Y-87745000D01*
X134942627Y-87751401D01*
X134942620Y-87751403D01*
X134807913Y-87801645D01*
X134807906Y-87801649D01*
X134692812Y-87887809D01*
X134692809Y-87887812D01*
X134606649Y-88002906D01*
X134606645Y-88002913D01*
X134556403Y-88137620D01*
X134556401Y-88137627D01*
X134550000Y-88197155D01*
X134550000Y-89750000D01*
X128000500Y-89750000D01*
X128000500Y-77124500D01*
X128020185Y-77057461D01*
X128072989Y-77011706D01*
X128124500Y-77000500D01*
X175875500Y-77000500D01*
X175942539Y-77020185D01*
G37*
%TD.AperFunction*%
%TD*%
M02*
